<?xml version="1.0" standalone="no"?>
<!DOCTYPE svg PUBLIC "-//W3C//DTD SVG 20010904//EN"
 "http://www.w3.org/TR/2001/REC-SVG-20010904/DTD/svg10.dtd">
<svg version="1.0" xmlns="http://www.w3.org/2000/svg"
 width="500.000000pt" height="500.000000pt" viewBox="0 0 500.000000 500.000000"
 preserveAspectRatio="xMidYMid meet">

<g transform="translate(0.000000,500.000000) scale(0.100000,-0.100000)"
fill="#000000" stroke="none">
<path d="M2840 3475 c-7 -9 -29 -15 -54 -15 -36 0 -48 -6 -81 -40 -28 -28 -41
-36 -47 -27 -5 8 -8 5 -8 -9 0 -11 -11 -31 -25 -44 -14 -13 -25 -28 -25 -33 0
-6 11 0 25 13 14 13 25 19 25 13 0 -6 -7 -16 -15 -23 -8 -7 -15 -23 -15 -36 0
-13 -4 -24 -9 -24 -5 0 -16 -12 -26 -26 -16 -25 -16 -27 9 -53 14 -15 26 -36
26 -48 0 -11 7 -26 15 -33 8 -7 15 -17 15 -23 0 -6 -12 0 -27 14 l-28 24 28
-31 c15 -16 27 -40 27 -52 0 -16 6 -22 22 -22 12 0 36 -12 52 -27 l31 -28 -24
28 c-14 15 -20 27 -14 27 6 0 16 -7 23 -15 7 -8 22 -15 33 -15 12 0 33 -12 48
-26 26 -25 28 -25 53 -9 14 10 26 21 26 26 0 5 11 9 24 9 13 0 29 7 36 15 7 8
17 15 23 15 6 0 0 -11 -13 -25 -13 -14 -19 -25 -13 -25 5 0 20 11 33 25 13 14
34 25 47 25 17 0 23 6 23 23 0 13 11 34 25 47 19 18 25 34 25 66 0 25 6 47 15
54 14 12 14 15 0 30 -8 9 -15 32 -15 52 0 24 -8 42 -25 58 -14 13 -25 34 -25
47 0 13 -5 23 -11 23 -5 0 -7 -4 -4 -10 3 -5 1 -10 -6 -10 -10 0 -10 -3 -1
-12 7 -7 12 -17 12 -22 0 -6 -22 11 -48 37 -27 27 -57 47 -69 47 -12 0 -25 5
-28 10 -4 6 6 10 23 10 20 0 38 -10 60 -36 18 -20 36 -34 39 -30 3 3 -11 22
-33 41 -28 24 -49 34 -73 35 -19 0 -42 7 -51 15 -15 14 -18 14 -30 0z m-40
-35 c-8 -5 -23 -10 -32 -10 -10 0 -38 -21 -63 -47 -25 -26 -45 -43 -45 -38 0
5 21 31 47 57 36 37 54 48 78 48 23 0 27 -3 15 -10z m85 0 c4 -6 -8 -10 -29
-10 -20 0 -36 5 -36 10 0 6 13 10 29 10 17 0 33 -4 36 -10z m-162 -81 c-33
-35 -59 -55 -62 -48 -4 14 87 107 106 108 7 1 -13 -26 -44 -60z m254 -11 l73
-72 0 -75 0 -75 -57 -58 -57 -58 -81 0 -81 0 -57 58 -57 58 0 79 0 80 67 67
c67 65 69 67 123 67 l55 1 72 -72z m23 17 c29 -30 52 -57 49 -59 -3 -3 -32 21
-64 54 -33 33 -55 60 -49 60 5 0 34 -25 64 -55z m100 -88 c0 -29 0 -30 -20
-12 -20 19 -28 41 -10 30 6 -3 10 -2 10 4 0 5 -4 13 -10 16 -5 3 -10 11 -10
17 0 6 9 3 20 -7 12 -10 20 -31 20 -48z m-451 -53 c1 -58 -2 -83 -9 -79 -15 9
-11 165 4 165 2 0 4 -39 5 -86z m451 -21 c0 -12 -9 -32 -20 -43 l-20 -20 0 62
c0 60 0 61 20 43 11 -10 20 -29 20 -42z m-480 0 c0 -35 -1 -36 -19 -19 -18 17
-18 19 -3 36 9 10 18 19 20 19 1 1 2 -15 2 -36z m464 -114 c-21 -23 -33 -16
-13 8 9 11 10 14 2 9 -19 -11 -16 11 5 32 16 17 17 16 20 -6 2 -13 -4 -32 -14
-43z m-434 20 c0 -6 -4 -7 -10 -4 -5 3 -10 11 -10 16 0 6 5 7 10 4 6 -3 10
-11 10 -16z m95 -98 c-7 -6 -85 70 -85 83 0 6 20 -10 45 -34 24 -24 42 -46 40
-49z m305 82 c0 -14 -74 -83 -89 -83 -9 0 2 18 29 45 42 42 60 54 60 38z
m-361 -57 l22 -23 -24 0 c-19 0 -24 5 -24 23 0 13 0 24 2 24 1 0 12 -11 24
-24z m341 -1 c-13 -14 -28 -25 -33 -25 -6 0 0 11 13 25 13 14 28 25 33 25 6 0
0 -11 -13 -25z m20 -15 c0 -5 -5 -10 -11 -10 -5 0 -7 5 -4 10 3 6 8 10 11 10
2 0 4 -4 4 -10z m-275 -30 c3 -5 2 -10 -4 -10 -5 0 -13 5 -16 10 -3 6 -2 10 4
10 5 0 13 -4 16 -10z m180 0 c-7 -12 -153 -12 -160 0 -4 7 22 10 79 9 47 -1
84 -5 81 -9z m-74 -29 c-7 -5 -17 -14 -20 -20 -5 -8 -13 -5 -26 9 -18 20 -18
20 21 20 26 0 34 -3 25 -9z"/>
<path d="M2510 2607 c-48 -32 -74 -81 -74 -140 0 -44 4 -53 33 -79 32 -28 38
-30 102 -26 37 2 70 6 73 9 3 3 9 21 12 40 l6 34 -20 -31 c-24 -37 -78 -52
-123 -34 -88 37 -40 220 62 236 43 7 89 -10 90 -33 0 -14 3 -12 10 5 5 13 7
28 3 33 -3 5 -36 9 -73 9 -54 0 -75 -5 -101 -23z"/>
<path d="M2747 2624 c-9 -9 4 -34 18 -34 14 0 27 25 18 34 -4 3 -12 6 -18 6
-6 0 -14 -3 -18 -6z"/>
<path d="M2723 2543 c9 -2 17 -6 17 -8 0 -2 -7 -39 -15 -82 -19 -100 -20 -93
18 -93 22 0 28 3 18 9 -14 9 -14 24 5 139 l7 42 -34 -1 c-19 -1 -26 -3 -16 -6z"/>
<path d="M2856 2524 c-14 -15 -31 -45 -38 -66 -22 -73 30 -121 89 -83 24 16
25 16 20 1 -5 -13 0 -16 26 -16 21 0 27 3 19 9 -13 8 -7 67 15 159 5 21 2 22
-50 22 -45 0 -59 -4 -81 -26z m86 -43 c-3 -63 -14 -87 -42 -96 -35 -11 -53 13
-47 63 5 50 41 94 72 90 18 -3 20 -9 17 -57z"/>
<path d="M3038 2542 c10 -7 10 -23 1 -80 -6 -39 -9 -78 -6 -86 8 -21 56 -21
85 0 20 14 22 14 22 0 0 -11 9 -16 28 -16 18 0 23 3 14 9 -11 6 -10 23 1 92 8
46 13 86 11 88 -2 2 -10 1 -17 -2 -9 -3 -17 -27 -21 -61 -8 -61 -36 -106 -67
-106 -28 0 -31 17 -16 98 l14 72 -31 0 c-20 0 -26 -3 -18 -8z"/>
</g>
</svg>
